<svg version="1.1" id="Layer_1" xmlns="http://www.w3.org/2000/svg" xmlns:xlink="http://www.w3.org/1999/xlink" x="0px" y="0px"
	 width="100%" viewBox="0 0 1024 1024" enable-background="new 0 0 1024 1024" xml:space="preserve">
<path fill="#000000" opacity="1.000000" stroke="none" 
	d="
M287.651398,704.770508 
	C297.127167,668.308777 305.535065,631.987122 316.537292,596.357910 
	C317.489471,593.274353 317.522552,590.291748 316.769928,587.071716 
	C314.499664,577.358459 313.303650,567.332336 310.303802,557.867126 
	C306.615509,546.229919 319.244110,533.930847 328.317902,534.851624 
	C334.192505,535.447815 336.357239,532.897949 337.958099,527.610901 
	C340.363312,519.667603 343.026947,511.727661 346.783966,504.268829 
	C349.499054,498.878510 353.401093,494.515411 357.852264,490.307190 
	C375.462433,473.658142 399.193115,468.909637 419.639893,457.828644 
	C424.585449,455.148468 429.352814,452.734833 433.641052,448.690491 
	C440.166016,442.536774 448.763153,439.035431 457.040009,435.548798 
	C460.151398,434.238098 463.001190,432.801819 465.699738,430.823608 
	C472.410828,425.903961 478.974304,420.670441 487.331604,418.678101 
	C489.730438,418.106232 490.527893,416.322784 490.563843,414.218201 
	C490.671906,407.888275 490.619415,401.555695 490.646301,395.224243 
	C490.657990,392.473969 489.012573,391.100708 486.709534,390.042419 
	C472.260071,383.402710 460.287659,373.455597 449.138855,362.280457 
	C438.867218,351.984680 434.496277,339.097046 431.748840,325.358826 
	C430.966064,321.444794 430.093781,317.539825 429.532990,313.592285 
	C428.625885,307.206940 425.925018,302.122192 421.673676,297.000671 
	C412.469482,285.912659 408.342285,272.239288 405.026062,258.354340 
	C389.132385,191.807922 419.859650,121.462914 478.966888,89.792923 
	C497.973755,79.608925 518.302612,75.542503 539.808228,78.665833 
	C548.064819,79.864975 555.685974,82.547462 560.952881,89.631973 
	C561.792908,90.761894 562.712402,91.431038 564.307922,91.220467 
	C582.222107,88.856216 596.012817,97.477036 608.184021,108.850586 
	C630.279358,129.497971 642.163635,155.842468 648.209534,185.008301 
	C653.084595,208.525742 652.645325,231.967896 645.738892,255.118301 
	C645.188782,256.962402 645.190308,258.664856 645.829163,260.478058 
	C651.272339,275.925415 646.976685,289.594879 638.129639,302.437286 
	C637.020813,304.046875 635.269043,305.281342 634.991943,307.733429 
	C644.091125,315.508209 649.829773,325.548218 651.689514,337.421814 
	C653.956787,351.897736 651.271667,365.289917 640.858215,376.381256 
	C640.084412,377.205444 638.559387,377.822723 639.018005,379.111847 
	C640.930481,384.487793 637.147827,386.964325 633.659119,389.059784 
	C618.486694,398.173035 602.861328,400.185852 586.802246,391.187195 
	C586.241943,390.873199 585.652039,390.611908 584.299744,389.940948 
	C584.255432,398.766968 585.913818,406.761627 588.101379,414.669739 
	C588.481689,416.044556 589.825317,416.506256 591.256592,416.744110 
	C592.876465,417.013336 595.039734,417.067108 595.945618,418.105408 
	C604.775574,428.225494 619.011841,429.517365 628.587646,438.434937 
	C644.536377,453.287262 665.721375,458.524689 684.441040,468.289825 
	C693.590149,473.062439 703.325989,476.724976 712.399292,481.625031 
	C732.982361,492.740875 745.509338,509.324066 748.496094,533.299255 
	C752.204346,563.065918 751.794617,592.725281 749.526550,622.505737 
	C747.542603,648.555237 745.350891,674.586243 741.250854,700.388000 
	C735.821228,734.557739 730.129028,768.705322 719.396423,801.736511 
	C716.196655,811.584351 711.581604,820.802368 706.448914,829.813782 
	C699.138672,842.648499 687.639221,847.498596 673.649963,848.139099 
	C671.859985,848.221130 669.992065,847.611877 667.623901,849.056458 
	C669.641113,857.340759 671.688904,865.828247 673.775696,874.306091 
	C680.094910,899.979065 686.400574,925.655457 692.788757,951.311279 
	C693.742920,955.143127 692.401855,957.047791 688.616028,957.529419 
	C676.242981,959.103394 663.893188,960.891235 651.494812,962.229248 
	C626.193176,964.959839 600.899902,967.877930 575.538452,969.911377 
	C553.481323,971.679810 531.401306,973.732910 509.213409,973.176025 
	C504.203522,973.050293 499.268066,972.399597 494.378448,971.301636 
	C485.332764,969.270325 478.839355,964.055359 474.611481,955.841187 
	C473.571991,953.821594 473.035736,951.420837 470.857025,949.972534 
	C468.327911,950.639709 468.168030,953.162720 467.157104,954.897156 
	C460.192993,966.845459 451.354218,970.961060 437.564514,969.784119 
	C407.506531,967.218872 377.794495,962.696655 348.530548,955.341370 
	C340.988800,953.445740 340.746857,952.854004 342.475891,945.415588 
	C349.779266,913.996094 357.082611,882.576355 364.274109,851.131226 
	C365.310577,846.599304 365.042816,841.939270 364.307434,836.830200 
	C357.588745,838.564941 351.200165,840.265930 344.784821,841.859070 
	C334.342041,844.452332 323.756256,845.684387 313.140625,843.371765 
	C293.967346,839.194519 282.416779,826.711792 275.621002,808.804443 
	C270.031647,794.076172 271.733185,779.467957 274.538513,764.580872 
	C278.295746,744.642273 282.102722,724.730652 287.651398,704.770508 
M556.688904,617.197998 
	C555.154114,618.952881 553.784729,620.895386 552.050964,622.424683 
	C548.108337,625.902283 549.482971,628.547668 552.933838,631.270874 
	C556.673950,634.222351 561.179260,635.556885 565.353516,637.603149 
	C576.298584,642.968689 584.748779,652.275452 582.216370,665.622559 
	C581.231079,670.815613 581.101318,676.227173 581.110352,681.538330 
	C581.121277,688.004456 578.893677,692.879639 573.797546,697.104004 
	C568.126160,701.805237 562.419312,706.793762 559.756531,714.393066 
	C560.752136,714.912781 561.424133,715.427612 562.180359,715.634399 
	C582.581421,721.213257 603.222595,725.707336 624.046936,729.396973 
	C627.297546,729.972900 628.047852,728.282959 628.655090,725.709595 
	C635.459656,696.870667 640.443665,667.698975 644.881653,638.418884 
	C646.151611,630.040405 647.938049,621.739868 649.510193,613.407837 
	C649.833679,611.693176 650.442322,609.912292 652.578247,610.191711 
	C654.839355,610.487549 655.285278,612.368225 655.184448,614.361450 
	C655.150879,615.024536 655.055847,615.688354 654.937927,616.342590 
	C648.207458,653.653809 643.220398,691.277527 634.588257,728.255859 
	C633.390503,733.386719 630.410034,734.605408 626.403137,735.235535 
	C624.496216,735.535461 622.428955,735.051758 620.466614,734.727417 
	C600.421265,731.414246 580.689087,726.628174 560.953796,721.882202 
	C555.524902,720.576660 550.282471,720.205078 544.720215,721.279114 
	C538.235657,722.531372 531.572083,725.922058 525.113708,723.754272 
	C515.561462,720.548035 508.695526,723.715942 502.419983,730.379211 
	C501.399200,731.463013 500.189972,732.389771 498.984344,733.275452 
	C492.992096,737.677795 489.666138,743.253723 493.538422,750.916809 
	C493.963348,751.757690 494.044525,752.887146 493.955597,753.852356 
	C493.621368,757.480530 495.174133,759.693726 498.404541,761.376099 
	C503.781097,764.176147 507.708923,768.275391 508.754852,774.638245 
	C509.197449,777.331055 510.924530,779.488525 512.788940,781.430725 
	C517.520325,786.359192 521.047058,791.713135 520.594788,799.028076 
	C520.261597,804.417358 523.519470,806.733093 528.498047,808.136780 
	C544.356018,812.607910 560.028870,817.739075 575.901550,822.153748 
	C600.269409,828.931152 624.655029,835.708679 649.799683,839.152893 
	C652.387085,839.507324 654.694397,839.471924 656.680054,837.370972 
	C660.683655,833.134827 662.093994,828.332703 660.402954,822.679993 
	C658.687134,816.944458 658.061890,810.928711 655.859375,805.309143 
	C654.484680,801.801819 655.714233,798.938782 658.153687,796.205200 
	C661.897766,792.009766 666.450317,792.740540 671.113220,793.539185 
	C680.412170,795.131958 693.909668,790.450684 696.867432,783.871521 
	C700.185059,776.491882 704.096619,769.264343 704.432556,760.773376 
	C704.668457,754.811096 704.646851,748.704041 706.523499,742.955139 
	C710.475281,730.848938 708.364075,719.708008 702.018738,708.971802 
	C697.953552,702.093628 697.231934,694.528015 698.375671,686.720703 
	C699.250244,680.750488 699.253784,674.802856 698.289673,668.816772 
	C696.616638,658.430420 699.503723,648.960938 705.376709,640.582275 
	C708.562256,636.037659 709.641785,633.648621 705.931519,629.742798 
	C697.985474,621.378052 697.874573,611.102722 698.206787,600.732117 
	C698.313293,597.408630 698.545227,593.021606 702.916687,592.351135 
	C707.619385,591.629822 707.540649,596.106812 708.594971,599.111694 
	C709.255127,600.993042 709.739685,603.269836 712.170410,603.416260 
	C715.041138,603.589233 715.593994,601.022339 716.072266,599.001953 
	C717.758789,591.877869 720.019714,584.772461 720.647949,577.537109 
	C722.494263,556.273926 719.444641,535.653503 710.504272,516.096008 
	C708.971191,512.742310 707.049438,509.665283 703.696594,507.927887 
	C701.603882,508.446442 700.537415,510.037689 699.271851,511.315857 
	C685.268433,525.458374 676.494019,542.787903 669.316406,561.026489 
	C666.698181,567.679504 664.667847,574.563660 662.360657,581.339478 
	C661.911926,582.657532 661.282227,584.030090 659.604797,583.542358 
	C658.077637,583.098267 657.797791,581.737305 658.199402,580.273438 
	C658.551819,578.988953 658.900513,577.702820 659.287903,576.428711 
	C666.627441,552.287537 677.255066,529.857422 693.541748,510.344086 
	C694.813660,508.820129 696.909668,507.463470 695.407654,504.738983 
	C693.895996,501.996948 691.827576,500.335815 688.707642,500.336334 
	C687.240417,500.336578 685.727112,500.679840 684.314941,501.123352 
	C680.170715,502.424988 676.373779,504.468964 672.520874,506.478241 
	C663.803528,511.024231 657.272217,510.806580 652.566589,501.317413 
	C650.570618,497.292419 648.344116,493.377411 646.111755,489.475739 
	C645.070679,487.656158 644.046936,485.548401 641.274170,486.224274 
	C641.274170,491.418518 640.978760,496.523560 641.358887,501.577759 
	C641.724426,506.438446 639.603943,508.379822 635.105164,509.344513 
	C627.463684,510.983093 619.918640,513.082581 612.357178,515.079773 
	C605.948975,516.772278 605.349670,519.063354 610.255615,523.760071 
	C614.825317,528.135010 619.561646,532.342712 624.340576,536.490356 
	C629.398987,540.880615 632.727661,540.828796 637.968384,536.509460 
	C639.635864,535.135132 641.129578,533.536865 642.866211,532.263916 
	C644.226318,531.266968 645.970154,530.577881 647.513672,531.758667 
	C649.379211,533.185791 648.516541,535.106445 647.800903,536.775146 
	C647.352661,537.820374 646.676331,538.858765 645.852661,539.635437 
	C643.109070,542.222595 641.926453,545.388367 642.129150,549.073059 
	C642.320374,552.547668 641.410767,555.632812 639.413147,558.472839 
	C637.030396,561.860474 636.537354,565.462524 638.313660,569.332092 
	C640.605530,574.324646 640.307312,579.514709 638.476746,584.449402 
	C636.749390,589.105896 634.977844,594.008118 632.016663,597.876831 
	C628.513855,602.453125 623.836731,606.216675 617.260071,605.819458 
	C609.817200,605.369934 603.229736,603.208618 598.389709,597.101379 
	C596.288818,594.450378 593.521118,592.617432 590.474060,591.135742 
	C586.744568,589.322266 583.735779,589.565186 580.664001,592.811462 
	C572.993347,600.917847 565.028809,608.746155 556.688904,617.197998 
M581.641968,415.635132 
	C580.688599,410.911163 579.651550,406.202301 578.797241,401.460510 
	C576.043152,386.174896 577.808105,370.594482 575.891418,355.245819 
	C575.784119,354.387146 576.291565,353.241760 576.880615,352.537323 
	C586.552429,340.970367 594.610229,328.389343 600.952820,314.705536 
	C602.077271,312.279663 604.001770,311.206421 606.672241,312.053894 
	C611.870422,313.703613 616.742126,312.438049 620.969788,309.611450 
	C635.015808,300.220215 642.525818,287.140625 641.538269,269.988556 
	C641.172119,263.629547 638.765198,257.737305 632.279358,255.088638 
	C626.291992,252.643539 620.707825,254.464722 616.044983,258.516113 
	C613.042908,261.124481 610.508728,261.173096 607.079956,259.391998 
	C590.262939,250.656082 577.098755,237.908646 566.333801,222.565231 
	C552.744263,203.195831 543.023743,181.844177 535.169006,159.638214 
	C533.525513,154.991821 530.839661,152.704987 526.243774,152.439713 
	C521.765808,152.181274 517.238770,151.767410 512.815125,152.912781 
	C483.236633,160.571213 460.492798,177.637039 444.259399,203.347122 
	C439.460846,210.947006 435.601166,219.173630 432.663483,227.666885 
	C428.169067,240.660736 422.944550,253.148865 426.985779,268.009125 
	C431.851227,285.900238 433.938812,304.532959 437.601227,322.769897 
	C439.998932,334.709167 443.091858,346.407837 451.825775,355.792969 
	C461.558228,366.251099 472.372650,375.263763 484.884186,382.146240 
	C496.740662,388.668304 509.071228,389.803070 522.000671,385.318848 
	C534.850464,380.862213 546.834717,374.863983 557.816711,366.841278 
	C559.645691,365.505157 561.889648,363.313354 563.825012,366.021759 
	C565.753784,368.721100 563.399597,370.602600 561.273315,372.069153 
	C555.926392,375.757141 550.580139,379.460480 544.725281,382.321350 
	C529.876587,389.576874 514.930603,396.497345 497.225647,394.091003 
	C497.225647,400.021881 497.560699,405.349152 497.146515,410.617493 
	C496.536804,418.372620 496.782257,426.934113 490.114075,432.286774 
	C485.558411,435.943634 485.515656,439.367889 486.678619,444.248291 
	C491.376129,463.961426 497.245453,483.428101 498.809509,503.814209 
	C499.179962,508.642670 499.168793,513.808472 501.664612,518.863892 
	C502.776154,516.827454 503.837158,515.441406 502.929260,513.676331 
	C501.451752,510.803802 503.214630,508.336365 505.038055,507.246124 
	C507.792572,505.599213 508.848206,503.203583 509.972412,500.658112 
	C512.528625,494.870270 515.209839,489.124390 517.445068,483.212036 
	C519.396118,478.051300 522.484131,473.971893 526.709900,470.484802 
	C544.180603,456.068054 561.453918,441.409790 579.048828,427.147522 
	C583.049866,423.904297 584.880676,421.033173 581.641968,415.635132 
M357.109253,628.373108 
	C365.876831,635.870728 375.428375,642.292236 385.309814,648.164368 
	C392.954193,652.707092 399.018280,658.657166 403.870697,665.992310 
	C407.814270,671.953430 411.779114,677.900574 415.908844,684.116211 
	C418.757996,682.425659 421.379730,683.175537 424.044525,684.355957 
	C425.488098,684.995361 427.164734,686.112427 428.630249,684.439514 
	C430.790558,681.973572 433.406525,682.534119 436.022552,683.164490 
	C441.037781,684.373047 446.120941,685.395020 451.011017,686.997620 
	C454.872040,688.262939 457.067627,687.298401 459.263550,683.921082 
	C464.799988,675.406189 470.734589,667.150146 476.506805,658.788391 
	C477.844574,656.850403 479.265198,654.940491 481.530243,654.057983 
	C494.397705,649.044067 506.340057,641.570557 520.730042,639.293335 
	C514.778931,610.206177 508.864655,581.046631 502.806000,551.917114 
	C501.698761,546.593689 498.446808,544.239014 492.674957,544.296204 
	C476.849884,544.453247 461.026855,544.805542 445.202209,545.016724 
	C408.882660,545.501465 372.562347,545.933228 336.243042,546.434570 
	C332.750732,546.482788 329.254761,546.781555 325.775482,547.118713 
	C321.619568,547.521545 316.141998,554.867126 316.958679,558.958374 
	C318.359009,565.973694 319.861572,572.968750 321.342682,579.967773 
	C326.368896,603.719604 331.369995,627.476868 336.494171,651.207581 
	C336.964203,653.384155 336.772919,656.449890 339.212646,657.355591 
	C344.751190,659.411682 350.539246,660.499634 356.949127,659.988892 
	C355.866852,657.291016 354.282227,655.815247 352.860107,654.213989 
	C349.105774,649.986816 344.896729,646.152344 342.014587,641.178711 
	C339.516388,636.867554 338.171661,632.333618 338.756409,627.337708 
	C339.135193,624.101440 340.817841,621.812500 343.863647,620.504761 
	C346.791779,619.247620 348.543182,621.114258 350.443939,622.768738 
	C352.454254,624.518494 354.526215,626.197388 357.109253,628.373108 
M335.620148,663.172058 
	C331.354065,661.107483 326.594330,659.703430 324.771210,654.655212 
	C318.624786,657.610718 317.428131,661.815063 321.463318,666.632507 
	C325.090729,670.963196 329.131287,674.946838 332.963501,679.107544 
	C334.411255,680.679382 336.527222,682.407043 334.095703,684.518494 
	C332.048584,686.296143 330.128601,684.911926 328.396088,683.362122 
	C326.441406,681.613708 325.090546,679.186707 322.371521,677.905212 
	C319.713776,681.464111 319.583679,684.690308 322.450836,688.247742 
	C325.707886,692.289001 329.549744,695.733154 333.078003,699.492554 
	C334.264862,700.757202 335.188934,702.359009 333.981323,703.978516 
	C332.567017,705.875244 330.809357,705.299500 329.178131,704.046021 
	C328.688995,703.670166 328.210571,703.015564 327.414185,703.923157 
	C327.036591,708.338745 330.136566,711.098633 332.725037,714.059814 
	C335.049713,716.719055 337.393890,719.157104 336.344818,723.265137 
	C335.743134,725.621277 337.588104,727.276489 339.317352,728.656555 
	C341.837189,730.667480 344.861694,731.642395 347.848816,732.693176 
	C366.340240,739.197754 385.773102,738.144409 405.309204,739.945679 
	C407.297394,726.093384 409.639282,712.355957 412.738007,698.767273 
	C413.764496,694.265869 415.405396,689.830017 409.758545,686.952759 
	C408.750092,686.438904 408.321930,684.774292 407.640350,683.632385 
	C399.486023,669.971497 390.675964,657.176514 375.824554,649.463989 
	C365.647491,644.178772 356.742889,636.710571 348.184357,628.991455 
	C347.386047,628.271484 346.752960,627.057190 345.076630,627.475708 
	C343.841187,629.426880 344.435730,631.464661 345.148926,633.525696 
	C346.825562,638.370605 349.883148,642.284607 353.461670,645.831604 
	C357.959259,650.289490 362.419342,654.781128 366.204803,659.877380 
	C367.378906,661.458008 368.898590,663.133301 367.720764,665.286560 
	C366.603180,667.329651 364.463531,667.335815 362.430969,667.338135 
	C353.547302,667.348083 344.881195,665.913513 335.620148,663.172058 
M533.728638,477.838684 
	C544.016052,485.379791 551.840759,495.660065 561.576843,503.713898 
	C563.551758,502.391083 564.216125,500.847321 564.994568,499.391144 
	C576.536072,477.801483 586.680725,455.469666 599.425354,434.520172 
	C602.315857,429.768860 597.319519,428.660278 595.565674,426.137787 
	C593.812317,423.615906 592.039062,425.017487 590.160400,426.492889 
	C571.290283,441.312164 552.974609,456.803558 534.719849,472.361816 
	C531.471436,475.130432 527.165161,477.151184 525.409851,481.246002 
	C518.520813,497.316772 511.905701,513.505005 505.194397,529.651917 
	C504.604523,531.071106 503.939392,532.682617 505.755768,533.593567 
	C513.282043,537.368103 514.096069,544.561340 515.416443,551.681458 
	C517.273438,561.695129 519.485718,571.642822 521.799805,582.847473 
	C533.604065,560.004944 544.612000,538.334412 556.038147,516.886658 
	C558.488525,512.287109 557.741272,509.527618 554.204224,506.211334 
	C546.428162,498.920532 538.910950,491.350769 531.375183,483.807800 
	C527.919678,480.349091 528.398438,478.854919 533.728638,477.838684 
M565.230896,848.808838 
	C562.326782,844.455322 566.093567,844.864380 568.332642,844.786499 
	C581.308899,844.335266 594.289368,843.970215 607.271240,843.732239 
	C615.468628,843.581909 623.671021,843.704102 631.871155,843.704102 
	C631.604614,842.135742 631.381104,841.815735 631.108765,841.766724 
	C600.743286,836.298889 571.393250,826.948303 541.842896,818.376099 
	C536.667175,816.874695 531.530334,815.901184 526.125122,816.553528 
	C520.509705,817.231384 519.180359,818.797546 521.739502,823.985718 
	C524.582886,829.750122 525.871155,835.906006 527.770508,841.913696 
	C528.272400,843.501160 528.679443,845.118835 529.192810,846.702332 
	C531.210754,852.926331 535.386353,856.450806 541.808167,858.181030 
	C552.188599,860.977905 563.974243,859.391846 572.514832,868.211487 
	C576.329590,872.150757 580.408142,875.814148 583.890686,880.094238 
	C589.822449,887.384338 594.708862,888.562073 603.206482,884.894348 
	C605.950439,883.709961 608.880676,882.617554 611.171570,880.788879 
	C617.135437,876.028381 623.291626,875.854675 630.315857,878.115601 
	C637.109497,880.302307 643.245422,876.290710 644.165466,869.154663 
	C644.897766,863.475281 647.167908,858.691772 650.194153,854.053284 
	C651.612732,851.878906 652.833069,849.575195 654.262085,847.126282 
	C651.206421,845.742310 648.252441,844.348389 646.053650,845.491882 
	C640.801636,848.223083 635.299011,847.298828 629.945679,847.485596 
	C608.658142,848.228149 587.358032,848.609924 565.230896,848.808838 
M548.020752,685.477661 
	C551.431274,683.488892 552.618103,681.016907 550.450867,677.213684 
	C548.208496,673.278625 545.480225,674.427551 542.393127,675.755737 
	C538.725098,677.333923 534.957520,678.680603 531.232178,680.125488 
	C528.950256,681.010620 526.451416,681.816528 525.305603,678.805664 
	C524.190430,675.875244 526.801147,675.229126 528.789612,674.420471 
	C534.033203,672.287720 539.333435,670.285400 544.514648,668.011536 
	C547.495056,666.703552 549.534302,664.716309 547.816895,660.945312 
	C546.287964,657.588013 544.164978,656.482178 540.652466,658.079529 
	C539.170166,658.753540 537.457336,659.107483 535.821472,659.227051 
	C523.851135,660.102112 512.050110,662.055359 500.344360,664.635315 
	C498.026276,665.146240 495.235474,666.086731 494.439087,663.035461 
	C493.609802,659.858398 496.791412,659.350403 498.904724,658.892212 
	C508.976776,656.708496 519.033142,654.429260 529.358276,653.617737 
	C533.577637,653.286072 537.905884,652.896790 542.643005,649.430542 
	C528.576233,648.990234 516.417480,645.036072 502.828979,650.944580 
	C488.469879,657.188171 477.278748,665.140198 470.082733,678.873901 
	C469.008575,680.923950 467.414368,682.695740 466.146332,684.651733 
	C465.106293,686.256165 463.333099,687.549194 463.715424,690.201660 
	C465.361603,690.695068 467.064819,691.258240 468.795898,691.716309 
	C488.744354,696.995056 508.881439,701.665527 528.564392,707.794983 
	C537.346985,710.529968 543.330505,708.993469 549.147217,702.567444 
	C552.524841,698.835876 552.833130,697.089172 549.032410,692.699097 
	C544.963501,695.119873 540.826721,697.556458 536.716736,700.037354 
	C534.825867,701.178833 532.987122,701.798645 531.547302,699.504517 
	C530.046143,697.112549 531.706299,695.815796 533.474731,694.686890 
	C538.108154,691.729004 542.764343,688.806824 548.020752,685.477661 
M604.874939,180.678558 
	C593.743469,173.399567 584.486450,164.125854 576.210327,153.798370 
	C574.688171,151.898987 573.449890,149.469055 570.212952,150.466354 
	C566.811035,151.514496 564.140198,153.256409 563.407654,156.993774 
	C563.186096,158.123947 563.073303,159.335449 563.222290,160.468719 
	C564.389099,169.346405 564.785278,178.376862 569.707886,186.381409 
	C572.052307,190.193558 574.074036,194.289536 575.635925,198.482666 
	C582.338135,216.474396 596.851501,223.685745 614.328979,226.617325 
	C618.481750,227.313904 622.957642,226.930679 625.952698,222.962341 
	C625.623413,222.470627 625.506042,222.088745 625.256165,221.955780 
	C623.642639,221.097153 622.034668,220.214081 620.361877,219.483185 
	C607.031738,213.658875 595.633911,205.128159 585.742126,194.563766 
	C583.023010,191.659714 580.713623,188.364441 578.302979,185.182907 
	C577.463806,184.075333 576.998413,182.663284 578.448364,181.679855 
	C579.658630,180.859024 580.688477,181.726120 581.472290,182.622208 
	C582.456848,183.747803 583.335327,184.967148 584.244324,186.157684 
	C595.141479,200.430283 609.081604,210.630753 625.852783,216.907730 
	C632.416931,219.364517 637.040955,216.450226 637.888977,209.521576 
	C638.354126,205.720901 638.126221,201.927322 637.082642,198.142319 
	C636.384521,195.610489 635.186340,194.279694 632.647156,193.477036 
	C623.098450,190.458511 613.878296,186.648880 604.874939,180.678558 
M493.727081,517.520142 
	C492.072052,488.043182 483.762115,459.870331 477.160034,430.768829 
	C473.017090,433.735535 469.481262,436.494904 465.715332,438.892975 
	C462.652374,440.843384 461.285522,443.283478 460.876038,446.958832 
	C459.586700,458.531616 458.918396,470.140900 458.370239,481.756012 
	C458.197235,485.421783 457.437714,489.246002 458.949768,492.963074 
	C461.634857,492.187592 462.977936,490.170898 464.720642,488.683502 
	C470.033356,484.149200 475.285889,479.540527 480.705261,475.137329 
	C482.437073,473.730255 484.742004,472.958740 486.383698,475.387177 
	C488.007233,477.788666 486.449554,479.480957 484.558502,480.790833 
	C475.484436,487.076233 468.063416,495.251587 459.738708,502.391388 
	C458.113251,503.785461 457.275726,505.374878 457.286407,507.568329 
	C457.319580,514.391357 457.385712,521.220886 457.126801,528.036011 
	C456.978424,531.941772 458.732483,532.862549 462.228455,532.729065 
	C471.536957,532.373718 480.853058,532.132507 490.167725,532.064575 
	C493.957367,532.036926 495.236633,530.409668 494.735992,526.843018 
	C494.343689,524.048279 494.091675,521.233948 493.727081,517.520142 
M452.838837,790.371643 
	C441.802032,786.642212 430.782532,782.860291 419.718262,779.214355 
	C416.269958,778.078064 413.415924,776.945190 412.582123,772.630798 
	C412.011475,769.678162 408.922607,768.385620 405.969940,768.234924 
	C403.289551,768.098083 402.417694,770.360840 401.765320,772.475647 
	C400.176147,777.627197 396.932068,781.972778 394.825134,786.832520 
	C393.009247,791.020996 390.267578,793.556580 385.914673,793.650635 
	C375.808594,793.869141 371.533691,801.011475 367.867950,808.624817 
	C365.211975,814.141052 368.518188,818.295837 371.857300,822.551331 
	C374.898529,826.427185 378.106598,826.031616 382.024109,824.749756 
	C400.214661,818.797546 418.450897,812.984802 436.643005,807.037231 
	C440.906555,805.643372 445.219727,804.239380 449.227631,802.266357 
	C454.208435,799.814392 455.991119,794.255371 452.838837,790.371643 
M478.897461,882.689270 
	C488.210815,885.054749 496.115997,882.006714 499.467957,874.294495 
	C501.041962,870.673157 502.057892,866.737366 502.799286,862.843628 
	C503.798737,857.594666 502.673553,853.034546 497.643219,849.898621 
	C495.743256,848.714172 494.568970,846.427124 492.842987,844.890869 
	C487.144714,839.818787 481.453064,834.475342 473.530701,833.340088 
	C466.459961,832.326782 449.171448,846.156128 449.975830,855.772888 
	C450.451630,861.460632 452.784576,866.276306 454.492828,871.448975 
	C456.537842,877.641418 461.018280,880.008423 466.956390,880.263672 
	C470.822693,880.429932 474.559387,880.893860 478.897461,882.689270 
M424.934814,774.696533 
	C433.301605,777.431580 441.750946,779.941284 450.011536,782.966431 
	C457.934143,785.867798 465.549896,787.862122 472.626160,781.201538 
	C472.856323,780.984802 473.210876,780.888245 473.520447,780.769592 
	C479.391113,778.519653 483.568573,775.193970 485.038391,768.351807 
	C486.565796,761.241272 486.078094,759.511169 479.005859,757.877991 
	C473.194733,756.536072 466.955566,757.634399 461.431152,754.778076 
	C451.249725,749.513916 429.997101,756.839905 422.491760,766.284912 
	C419.641266,769.872070 420.202118,772.188599 424.934814,774.696533 
M618.428955,558.239929 
	C602.638062,558.261719 586.846436,558.191650 571.056580,558.332947 
	C557.350220,558.455688 559.660889,556.303406 559.211548,570.254944 
	C559.066223,574.766663 560.717712,575.909668 564.968872,575.860840 
	C581.588562,575.669922 598.213806,575.944031 614.833313,575.744629 
	C630.252808,575.559631 627.348450,578.942566 627.716858,562.060364 
	C627.776917,559.310669 626.656128,558.051086 623.887939,558.205627 
	C622.396362,558.288879 620.896851,558.228699 618.428955,558.239929 
M425.517365,836.960999 
	C431.170898,834.764343 436.450134,831.952759 440.196136,827.010925 
	C443.356110,822.842224 441.940613,817.947571 437.264709,817.387451 
	C432.676575,816.837769 427.929474,816.389587 423.392700,817.814331 
	C410.070526,821.998108 396.779724,826.282776 383.503113,830.609131 
	C381.856720,831.145630 379.798462,831.239624 379.000641,833.267456 
	C382.083801,841.439331 382.084656,841.422180 390.077911,841.813843 
	C391.902191,841.903198 393.715515,842.198853 395.539032,842.325806 
	C405.716156,843.034241 416.239594,845.704163 425.517365,836.960999 
M301.093323,764.565979 
	C304.585205,766.513000 308.221191,766.949341 312.172028,766.131836 
	C319.332092,764.650208 326.551208,763.456421 333.728943,762.056763 
	C337.024048,761.414246 340.124695,760.275940 342.628265,757.860840 
	C346.284668,754.333740 346.582977,751.169067 343.414948,745.173157 
	C341.413971,741.386108 338.459717,739.970154 333.923798,740.860474 
	C322.936646,743.016724 312.428925,746.619385 302.012451,750.561462 
	C299.295197,751.589844 295.988647,752.204651 295.716858,756.065857 
	C295.453308,759.810486 297.311188,762.389038 301.093323,764.565979 
M594.759033,167.737228 
	C603.751831,175.227798 613.147217,182.065186 624.402222,185.844315 
	C625.922607,186.354828 627.653320,187.512802 629.048889,185.994125 
	C630.390686,184.533951 630.158875,182.477692 629.566895,180.761749 
	C629.040588,179.236008 627.983215,177.883057 627.098267,176.493332 
	C623.752563,171.239578 618.103516,167.980637 614.832825,162.751923 
	C611.415283,157.288559 606.530884,153.603012 601.133667,150.685226 
	C596.815125,148.350601 592.698059,145.106369 587.439026,145.031250 
	C585.228027,144.999680 582.593201,144.235352 581.193481,146.906662 
	C579.860718,149.450272 580.754761,151.653992 582.332275,153.838409 
	C585.855835,158.717392 589.779663,163.221573 594.759033,167.737228 
M632.772339,472.787170 
	C633.099854,468.976135 631.689697,466.326813 627.715088,465.615906 
	C623.827209,464.920532 623.251465,468.417908 621.854919,470.646973 
	C620.808533,472.317108 620.050537,474.243713 619.532593,476.155975 
	C617.346375,484.228668 614.570435,492.018921 610.070190,499.156647 
	C609.152405,500.612274 608.955811,502.631134 608.783752,504.424591 
	C608.475220,507.641174 609.934082,509.149933 613.277893,508.348145 
	C619.424744,506.874237 625.552551,505.311554 631.728943,503.973907 
	C634.653809,503.340485 635.410095,501.753906 635.127136,498.966339 
	C634.270935,490.530029 633.577332,482.077240 632.772339,472.787170 
M480.170471,799.464233 
	C467.810333,801.794922 456.533356,807.396606 443.101105,810.987976 
	C467.727722,810.987976 490.788940,810.987976 513.850159,810.987976 
	C513.881104,810.743835 513.912109,810.499634 513.943115,810.255493 
	C502.938110,806.730591 491.933136,803.205688 480.170471,799.464233 
M419.642853,726.301758 
	C421.726349,715.901306 423.726349,705.482971 425.957397,695.114258 
	C426.457428,692.790527 426.506775,691.173706 423.864288,690.589294 
	C421.183502,689.996521 420.850067,692.119507 420.444275,693.841370 
	C419.150604,699.330505 417.988556,704.850464 416.767059,710.356689 
	C413.854980,723.483521 412.340759,736.836487 410.449005,750.124146 
	C410.022369,753.120789 409.161865,757.070068 414.891968,757.118958 
	C416.463684,747.034790 418.011627,737.103149 419.642853,726.301758 
M401.616425,503.998840 
	C398.741150,506.188660 397.232788,509.382019 395.564148,512.425476 
	C394.792297,513.833252 393.778931,515.515686 395.009766,517.067200 
	C396.119110,518.465515 397.779480,517.633057 399.220703,517.447510 
	C406.120667,516.559570 412.080353,513.338257 418.085083,510.095398 
	C420.891327,508.579895 422.106720,506.660706 421.196747,503.714508 
	C420.552063,501.627289 413.861511,498.284149 412.153625,499.027832 
	C408.813873,500.482056 405.521759,502.045624 401.616425,503.998840 
M315.235291,740.671509 
	C318.866455,738.934265 323.721893,739.356262 326.086304,735.106506 
	C324.429108,733.228088 322.523621,732.986572 320.809662,732.613037 
	C317.428833,731.876343 313.656586,732.151733 310.637329,730.742310 
	C307.031311,729.058899 304.676880,730.001404 302.209381,732.287476 
	C299.513611,734.784973 298.713379,737.728027 299.938324,741.287598 
	C300.841400,743.911804 302.106689,745.196594 305.070221,744.027771 
	C308.141235,742.816650 311.331757,741.908447 315.235291,740.671509 
M565.494995,598.989380 
	C567.699585,596.503906 570.006836,594.099792 572.067078,591.499939 
	C573.157837,590.123535 573.295349,588.342285 572.037537,586.891479 
	C570.991516,585.684814 569.649597,586.236694 568.335999,586.589478 
	C556.004028,589.901428 551.798401,601.408081 552.071838,613.110901 
	C556.796082,608.135620 560.897766,603.815979 565.494995,598.989380 
M641.730530,339.023773 
	C642.509338,340.305084 641.375549,342.508881 643.740234,343.136932 
	C645.489929,341.510651 645.010254,339.349762 644.716736,337.556763 
	C643.259155,328.650757 639.569275,320.969269 632.548462,314.898376 
	C628.976440,311.809631 626.970886,312.931152 624.452148,316.456482 
	C632.363525,322.202789 637.688782,329.678131 641.730530,339.023773 
M420.077728,516.575867 
	C417.250488,518.417358 413.629303,519.217163 411.882782,522.553284 
	C417.833801,527.618896 430.757690,524.407959 433.218292,517.451599 
	C433.763489,515.910339 433.723907,514.517395 432.502563,513.316528 
	C431.300659,512.134827 429.832825,511.887421 428.359009,512.546204 
	C425.783295,513.697449 423.276520,515.003052 420.077728,516.575867 
M525.435242,638.232849 
	C525.658936,638.833740 525.882690,639.434631 526.106384,640.035522 
	C526.394836,639.968506 526.683289,639.901550 526.971741,639.834595 
	C522.614136,618.212402 518.256531,596.590210 513.898865,574.968018 
	C513.542908,575.037415 513.186951,575.106750 512.830994,575.176147 
	C517.003723,595.974670 521.176514,616.773132 525.435242,638.232849 
M391.763672,539.375183 
	C381.664398,540.519592 371.502441,540.019226 366.222504,540.233337 
	C379.298065,540.233337 397.213776,540.233337 415.129486,540.233337 
	C415.126221,539.944519 415.122955,539.655640 415.119690,539.366821 
	C407.652161,539.366821 400.184601,539.366821 391.763672,539.375183 
z"/>
<path fill="#000000" opacity="1.000000" stroke="none" 
	d="
M664.894287,750.049683 
	C671.233459,753.768433 677.273865,757.273743 683.276001,760.843323 
	C684.809387,761.755249 686.913086,762.730347 685.401917,765.004395 
	C684.161621,766.870789 682.366638,765.818420 680.961060,764.975830 
	C666.977417,756.593018 652.800903,748.560852 638.254578,741.187988 
	C636.925903,740.514526 635.287964,739.555237 636.089417,737.795959 
	C637.158081,735.449951 639.221863,736.352417 640.814453,737.186707 
	C648.767456,741.352539 656.664551,745.625000 664.894287,750.049683 
z"/>
<path fill="#000000" opacity="1.000000" stroke="none" 
	d="
M689.718994,730.665283 
	C692.783508,733.918823 690.738464,734.977783 687.978760,735.023621 
	C684.507019,735.081177 681.027222,734.394287 677.549194,734.377258 
	C666.416382,734.322693 655.282776,734.436890 644.149475,734.465210 
	C642.415344,734.469604 640.067688,735.162048 639.954468,732.390076 
	C639.864685,730.191101 641.853943,729.876221 643.545654,729.865540 
	C658.819336,729.769287 674.104065,728.993103 689.718994,730.665283 
z"/>
<path fill="#000000" opacity="1.000000" stroke="none" 
	d="
M524.529053,344.400635 
	C510.899536,362.486145 487.770538,360.771454 477.907104,341.262360 
	C475.238159,335.983429 476.415131,334.014404 482.367279,333.762726 
	C494.977264,333.229584 507.586182,332.672455 520.196960,332.158722 
	C522.791565,332.053009 525.822266,331.070099 527.615662,333.662109 
	C529.542969,336.447723 527.466431,339.036072 526.288757,341.543976 
	C525.867920,342.440369 525.260681,343.249268 524.529053,344.400635 
M497.450531,350.402222 
	C506.188416,353.212311 517.961975,346.315704 519.590088,339.283630 
	C508.088104,339.283630 496.485321,339.283630 483.794098,339.283630 
	C487.516418,345.142517 491.636993,348.188293 497.450531,350.402222 
z"/>
<path fill="#000000" opacity="1.000000" stroke="none" 
	d="
M484.057922,291.040894 
	C490.540863,280.798889 491.229828,270.559479 485.967438,259.976807 
	C485.451355,258.938965 485.105194,257.817993 484.644623,256.750946 
	C483.734436,254.642212 482.996735,252.359894 485.759613,251.263977 
	C488.309875,250.252380 489.150208,252.572113 490.086365,254.312531 
	C498.235046,269.461517 497.126556,284.020386 486.877960,297.721527 
	C484.376434,301.065765 484.134064,303.473907 487.477356,306.046600 
	C487.994324,306.444427 488.425781,306.989624 488.796112,307.535034 
	C490.056458,309.391602 492.406128,311.425751 489.802582,313.528290 
	C487.288788,315.558289 485.641602,313.147675 484.099945,311.393066 
	C476.370728,302.596161 476.368530,302.598114 484.057922,291.040894 
z"/>
<path fill="#000000" opacity="1.000000" stroke="none" 
	d="
M540.183899,277.025635 
	C534.562744,272.351868 533.117737,265.958893 536.236389,260.916931 
	C539.788513,255.174194 547.086792,255.126587 550.542908,260.914429 
	C553.180908,265.332092 552.991394,269.889404 550.200867,274.130219 
	C547.902039,277.623718 544.463318,278.413147 540.183899,277.025635 
z"/>
<path fill="#000000" opacity="1.000000" stroke="none" 
	d="
M469.283478,269.762390 
	C467.903839,276.016785 464.634552,279.280609 460.313538,279.125122 
	C456.442566,278.985809 452.882355,275.348267 451.917969,270.547150 
	C450.906769,265.513031 453.349518,260.252380 457.539062,258.441711 
	C461.539734,256.712677 466.006104,258.688416 468.209900,263.065613 
	C469.220032,265.071960 469.365967,267.173767 469.283478,269.762390 
z"/>
<path fill="#000000" opacity="1.000000" stroke="none" 
	d="
M633.482544,262.680847 
	C634.620544,264.956146 633.774231,266.323456 631.971497,266.930267 
	C620.687439,270.728699 618.833008,280.381744 617.334229,290.278748 
	C616.978455,292.627899 618.852600,296.498688 614.565247,296.399536 
	C610.948242,296.315887 611.264954,292.519104 611.320496,290.074188 
	C611.554749,279.758911 615.360168,270.916504 623.370667,264.220734 
	C626.170654,261.880280 629.324890,259.614258 633.482544,262.680847 
z"/>
<path fill="#000000" opacity="1.000000" stroke="none" 
	d="
M445.694763,235.812866 
	C444.818451,236.396072 444.266724,236.766541 443.724915,237.151077 
	C442.276703,238.179031 440.666107,238.963989 439.315582,237.291031 
	C438.071930,235.750381 438.834686,234.161942 439.971802,232.784805 
	C445.928314,225.571243 462.438416,223.431427 470.047546,228.876205 
	C471.496124,229.912704 472.798553,231.182144 471.775452,232.997955 
	C470.516357,235.232712 468.412231,234.708084 466.483704,233.900345 
	C459.358765,230.916183 452.547119,231.479996 445.694763,235.812866 
z"/>
<path fill="#000000" opacity="1.000000" stroke="none" 
	d="
M553.482605,230.504700 
	C546.269287,227.549011 539.544250,227.343094 532.973206,231.206238 
	C531.317749,232.179520 529.479797,232.974380 528.219971,230.784149 
	C527.062134,228.771317 528.298889,227.410416 529.909302,226.198822 
	C537.204163,220.710693 554.770325,221.669418 561.544189,227.948547 
	C562.722412,229.040756 563.648926,230.188095 562.733398,231.835007 
	C561.840027,233.442184 560.311829,233.553116 558.818359,232.984482 
	C557.113770,232.335480 555.504639,231.435867 553.482605,230.504700 
z"/>
<path fill="#000000" opacity="1.000000" stroke="none" 
	d="
M401.110291,571.723633 
	C399.229156,568.686829 399.231598,566.001526 401.444397,563.670654 
	C403.015564,562.015564 405.080414,561.483093 407.363098,562.216370 
	C409.989868,563.060059 411.534027,564.892334 411.936188,567.549011 
	C412.322449,570.100708 411.170013,572.053467 408.963593,573.320557 
	C406.108276,574.960205 403.583954,574.314697 401.110291,571.723633 
z"/>
<path fill="#000000" opacity="1.000000" stroke="none" 
	d="
M327.521301,566.917236 
	C323.338013,563.453186 322.692505,559.816284 325.418823,557.092468 
	C327.831726,554.681824 332.021759,554.763062 334.350952,557.350647 
	C336.035248,559.221741 336.694183,561.385010 335.456909,563.764526 
	C333.844940,566.864685 331.199310,567.739624 327.521301,566.917236 
z"/>
<path fill="#000000" opacity="1.000000" stroke="none" 
	d="
M465.337585,867.409668 
	C463.104309,859.464294 466.136047,853.448486 473.054077,851.410583 
	C479.369659,849.550171 485.702393,853.250549 487.618042,859.920715 
	C489.109253,865.113037 486.176880,871.144958 481.039642,873.452637 
	C475.075470,876.131531 469.704163,874.159607 465.337585,867.409668 
M475.670441,856.456970 
	C471.841431,857.277954 469.783051,859.561157 470.331696,863.545593 
	C470.776062,866.772095 472.948181,868.529968 476.149933,868.663757 
	C479.515442,868.804260 481.495941,866.700317 482.095337,863.685547 
	C482.966858,859.301697 480.145569,857.407776 475.670441,856.456970 
z"/>
</svg>